<?xml version="1.0" standalone="no"?>
<!DOCTYPE svg PUBLIC "-//W3C//DTD SVG 20010904//EN"
 "http://www.w3.org/TR/2001/REC-SVG-20010904/DTD/svg10.dtd">
<svg version="1.0" xmlns="http://www.w3.org/2000/svg"
 width="665.000000pt" height="665.000000pt" viewBox="0 0 665.000000 665.000000"
 preserveAspectRatio="xMidYMid meet">
<metadata>
Created by potrace 1.11, written by Peter Selinger 2001-2013
</metadata>
<g transform="translate(0.000000,665.000000) scale(0.100000,-0.100000)"
fill="#000000" stroke="none">
<path d="M0 3330 l0 -3310 3325 0 3325 0 0 3310 0 3310 -3325 0 -3325 0 0
-3310z m4305 2795 c521 -48 900 -162 1205 -364 249 -164 441 -415 518 -676 42
-140 55 -255 49 -429 -7 -216 -37 -349 -114 -501 -119 -235 -361 -438 -676
-565 l-57 -24 118 -41 c558 -195 879 -557 953 -1077 13 -96 8 -333 -11 -433
-52 -289 -173 -521 -392 -758 -152 -165 -318 -288 -526 -392 -285 -141 -559
-209 -1057 -262 -143 -15 -357 -17 -1967 -20 l-1808 -4 0 2781 0 2780 1803 0
c1506 0 1828 -3 1962 -15z"/>
<path d="M1940 4566 l0 -616 928 0 c965 0 1053 3 1250 45 261 54 443 165 511
309 93 194 75 448 -41 603 -59 77 -189 158 -306 188 -83 22 -219 45 -367 62
-103 12 -324 16 -1052 20 l-923 5 0 -616z"/>
<path d="M1940 2290 l0 -741 1033 4 c1114 3 1093 2 1297 58 363 99 559 345
562 709 2 133 -11 197 -58 296 -42 88 -105 160 -194 219 -123 82 -235 122
-426 155 -195 33 -404 40 -1331 40 l-883 0 0 -740z"/>
</g>
</svg>
