<svg xmlns="http://www.w3.org/2000/svg" xmlns:xlink="http://www.w3.org/1999/xlink" class="ldi-8of8v6" width="200px" height="200px" viewBox="0 0 100 100" preserveAspectRatio="xMidYMid" style="background: none;"><!--?xml version="1.0" encoding="utf-8"?--><!--Generator: Adobe Illustrator 21.0.0, SVG Export Plug-In . SVG Version: 6.00 Build 0)--><svg xmlns="http://www.w3.org/2000/svg" xmlns:xlink="http://www.w3.org/1999/xlink" version="1.1" id="Layer_1" x="0px" y="0px" viewBox="0 0 100 100" style="transform-origin: 50px 50px 0px;" xml:space="preserve"><g style="transform-origin: 50px 50px 0px;"><g style="transform-origin: 50px 50px 0px; transform: scale(0.6);"><g style="transform-origin: 50px 50px 0px;"><g><style type="text/css" class="ld ld-heartbeat" style="transform-origin: 50px 50px 0px; animation-duration: 1s; animation-delay: -1s; animation-direction: normal;">.st0{fill:#F4E6C8;} .st1{opacity:0.8;fill:#849B87;} .st2{fill:#D65A62;} .st3{fill:#E15C64;} .st4{fill:#F47E5F;} .st5{fill:#F7B26A;} .st6{fill:#FEE8A2;} .st7{fill:#ACBD81;} .st8{fill:#F5E169;} .st9{fill:#F0AF6B;} .st10{fill:#EA7C60;} .st11{fill:#A8B980;} .st12{fill:#829985;} .st13{fill:#798AAE;} .st14{fill:#8672A7;} .st15{fill:#CC5960;} .st16{fill:#E17A5F;} .st17{fill:#849B87;} .st18{opacity:0.8;fill:#E15C64;} .st19{opacity:0.8;fill:#F7B26A;} .st20{fill:#79A5B5;} .st21{opacity:0.8;fill:#79A5B4;} .st22{fill:#666766;}</style><g class="ld ld-heartbeat" style="transform-origin: 50px 50px 0px; animation-duration: 1s; animation-delay: -0.9375s; animation-direction: normal;"><path class="st3" d="M14.3,27.1C21.1,16.4,32.6,9,45.8,7.7l3.6,7.3l-3.9,7.8c-7.6,1.3-14.2,5.6-18.3,11.8l-4.7-7L14.3,27.1z" fill="#ffffff" style="fill: rgb(255, 255, 255);"/></g><g class="ld ld-heartbeat" style="transform-origin: 50px 50px 0px; animation-duration: 1s; animation-delay: -0.875s; animation-direction: normal;"><path class="st5" d="M55.7,15l-3.8,7.5c7.8,0.5,14.7,4.3,19.4,10l8.8-0.5l4.5-6.8C77.2,15,65.4,8.2,52,7.6L55.7,15z" fill="#ffffff" style="fill: rgb(255, 255, 255);"/></g><g class="ld ld-heartbeat" style="transform-origin: 50px 50px 0px; animation-duration: 1s; animation-delay: -0.8125s; animation-direction: normal;"><path class="st4" d="M83.2,37.4l-8.4,0.5c1.8,3.6,2.8,7.7,2.8,12.1c0,3.4-0.6,6.7-1.8,9.7l4.8,7.3l8.1,0.5 c2.4-5.3,3.8-11.3,3.8-17.5c0-7-1.7-13.6-4.8-19.5L83.2,37.4z" fill="#ffffff" style="fill: rgb(255, 255, 255);"/></g><g class="ld ld-heartbeat" style="transform-origin: 50px 50px 0px; animation-duration: 1s; animation-delay: -0.75s; animation-direction: normal;"><path class="st3" d="M77.5,72.5l-4.7-7c-4.2,6.1-10.7,10.5-18.3,11.8L50.6,85l3.6,7.3c13.2-1.3,24.7-8.7,31.5-19.3L77.5,72.5z" fill="#ffffff" style="fill: rgb(255, 255, 255);"/></g><g class="ld ld-heartbeat" style="transform-origin: 50px 50px 0px; animation-duration: 1s; animation-delay: -0.6875s; animation-direction: normal;"><path class="st4" d="M16.8,62.6l8.4-0.5c-1.8-3.6-2.8-7.7-2.8-12.1c0-3.4,0.6-6.7,1.8-9.7L19.4,33l-8.1-0.5 C8.9,37.8,7.5,43.8,7.5,50c0,7,1.7,13.6,4.8,19.5L16.8,62.6z" fill="#ffffff" style="fill: rgb(255, 255, 255);"/></g><g class="ld ld-heartbeat" style="transform-origin: 50px 50px 0px; animation-duration: 1s; animation-delay: -0.625s; animation-direction: normal;"><path class="st5" d="M44.3,85l3.8-7.5c-7.8-0.5-14.7-4.3-19.4-10L19.9,68l-4.5,6.8C22.8,85,34.6,91.8,48,92.4L44.3,85z" fill="#ffffff" style="fill: rgb(255, 255, 255);"/></g><metadata xmlns:d="https://loading.io/stock/" class="ld ld-heartbeat" style="transform-origin: 50px 50px 0px; animation-duration: 1s; animation-delay: -0.5625s; animation-direction: normal;">
<d:name class="ld ld-heartbeat" style="transform-origin: 50px 50px 0px; animation-duration: 1s; animation-delay: -0.5s; animation-direction: normal;">recycle</d:name>
<d:tags class="ld ld-heartbeat" style="transform-origin: 50px 50px 0px; animation-duration: 1s; animation-delay: -0.4375s; animation-direction: normal;">state,progress,circle,repeat,circulate,arrow,step,recycle,spinner</d:tags>
<d:license class="ld ld-heartbeat" style="transform-origin: 50px 50px 0px; animation-duration: 1s; animation-delay: -0.375s; animation-direction: normal;">cc-by</d:license>
<d:slug class="ld ld-heartbeat" style="transform-origin: 50px 50px 0px; animation-duration: 1s; animation-delay: -0.3125s; animation-direction: normal;">8of8v6</d:slug>
</metadata></g></g></g></g><style type="text/css" class="ld ld-heartbeat" style="transform-origin: 50px 50px 0px; animation-duration: 1s; animation-delay: -0.25s; animation-direction: normal;">@keyframes ld-heartbeat {
  0% {
    -webkit-transform: scale(1.05);
    transform: scale(1.05);
  }
  5% {
    -webkit-transform: scale(1.25);
    transform: scale(1.25);
  }
  39% {
    -webkit-transform: scale(0.9);
    transform: scale(0.9);
  }
  45% {
    -webkit-transform: scale(1.15);
    transform: scale(1.15);
  }
  60% {
    -webkit-transform: scale(1.05);
    transform: scale(1.05);
  }
  100% {
    -webkit-transform: scale(1);
    transform: scale(1);
  }
}
@-webkit-keyframes ld-heartbeat {
  0% {
    -webkit-transform: scale(1.05);
    transform: scale(1.05);
  }
  5% {
    -webkit-transform: scale(1.25);
    transform: scale(1.25);
  }
  39% {
    -webkit-transform: scale(0.9);
    transform: scale(0.9);
  }
  45% {
    -webkit-transform: scale(1.15);
    transform: scale(1.15);
  }
  60% {
    -webkit-transform: scale(1.05);
    transform: scale(1.05);
  }
  100% {
    -webkit-transform: scale(1);
    transform: scale(1);
  }
}
.ld.ld-heartbeat {
  -webkit-animation: ld-heartbeat 0.8s infinite cubic-bezier(0.215, 0.61, 0.355, 1);
  animation: ld-heartbeat 0.8s infinite cubic-bezier(0.215, 0.61, 0.355, 1);
}
</style></svg></svg>